<svg xmlns="http://www.w3.org/2000/svg" width="30" height="30" viewBox="0 0 30 30">
    <g fill="#000" fill-rule="evenodd">
        <path d="M10.355 19.637a.5.5 0 0 1-.353-.855l8.78-8.78a.5.5 0 1 1 .708.707l-8.781 8.781a.496.496 0 0 1-.354.147z"/>
        <path d="M19.136 19.637a.496.496 0 0 1-.353-.147L10 10.71a.5.5 0 1 1 .708-.708l8.78 8.78a.5.5 0 0 1-.353.855z"/>
        <path fill-rule="nonzero" d="M14.746 29.491C6.615 29.491 0 22.877 0 14.747 0 6.616 6.615 0 14.746 0s14.746 6.614 14.746 14.746c0 8.131-6.616 14.744-14.746 14.744zm0-28.49C7.166 1 1 7.167 1 14.747c0 7.579 6.167 13.746 13.746 13.746 7.58 0 13.746-6.167 13.746-13.746C28.492 7.167 22.325 1 14.746 1z"/>
    </g>
</svg>
